<svg width="16" height="16" viewBox="0 0 16 16" fill="none" xmlns="http://www.w3.org/2000/svg">
    <path d="M8.4095 15.2227C6.15698 15.2227 4.04346 14.4288 2.45823 12.9874C0.872988 11.5461 1.96949e-07 9.62415 1.96949e-07 7.57593C-0.000336065 6.16299 0.429924 4.77759 1.24302 3.57351C2.05612 2.36944 3.22026 1.39379 4.60621 0.754847C4.7488 0.688754 4.90964 0.662314 5.06865 0.678827C5.22766 0.69534 5.3778 0.754074 5.50033 0.847698C5.62286 0.941322 5.71234 1.06569 5.75762 1.20527C5.80289 1.34486 5.80195 1.49347 5.7549 1.63257C5.35941 2.79413 5.32054 4.03187 5.64249 5.21205C5.96444 6.39223 6.63497 7.46997 7.58161 8.32881C8.26095 8.95112 9.0693 9.44473 9.95986 9.78105C10.8504 10.1174 11.8055 10.2897 12.7698 10.2882C13.5075 10.2887 14.241 10.1881 14.9458 9.98972C15.0987 9.94692 15.2622 9.94604 15.4157 9.9872C15.5693 10.0284 15.7061 10.1097 15.809 10.2212C15.912 10.3326 15.9766 10.4691 15.9947 10.6137C16.0129 10.7583 15.9838 10.9046 15.9111 11.0342C15.2084 12.2945 14.1354 13.353 12.8112 14.0924C11.487 14.8317 9.96341 15.223 8.4095 15.2227ZM4.57711 1.87951C3.50237 2.4741 2.61458 3.31083 1.99961 4.30875C1.38464 5.30668 1.06331 6.43202 1.06669 7.57593C1.06669 11.2575 4.36064 14.2527 8.4095 14.2527C9.66753 14.2558 10.9052 13.9636 12.0026 13.4045C13.1001 12.8453 14.0203 12.038 14.6742 11.0608C14.0498 11.1922 13.4109 11.2584 12.7699 11.2582C11.6654 11.2601 10.5715 11.0628 9.55152 10.6777C8.5315 10.2926 7.60562 9.72739 6.82746 9.01473C5.81656 8.09727 5.07944 6.9607 4.68571 5.7123C4.29197 4.46391 4.25459 3.14487 4.57711 1.87969V1.87951Z" fill="white"/>
</svg>
