<svg width="16" height="17" viewBox="0 0 16 17" fill="none" xmlns="http://www.w3.org/2000/svg">
<path d="M7.16057 12.5017L7.64279 11.4638C7.16643 10.9828 6.7154 10.4768 6.29154 9.94781C6.64547 9.46438 6.97524 8.96828 7.28085 8.45952C8.129 7.04923 8.78582 5.5297 9.23359 3.94189H10.9648V2.85846H6.151V0.962463H5.08126V2.85846H0V3.94189H1.99807C2.52062 5.79507 3.32654 7.55393 4.38654 9.15451C4.61422 8.8699 4.84472 8.56431 5.07404 8.23931C4.22974 6.90425 3.57002 5.45834 3.11328 3.94189H8.11889C7.12514 7.24398 5.29257 9.67079 3.8854 11.1575C2.24759 12.8878 0.811498 13.7598 0.79719 13.7684L0.851379 13.8611L1.06974 14.2345L1.34185 14.7008C1.40447 14.6634 2.89545 13.762 4.63094 11.9354C4.9737 11.5746 5.30175 11.203 5.6151 10.8204C6.09896 11.4095 6.61492 11.9708 7.16057 12.5017Z" fill="white"/>
<path d="M10.6213 7.19217L10.43 7.61593L6.4646 16.4013H7.64081L8.86336 13.6927H13.6013L14.8238 16.4013H16.0001L11.8434 7.19217H10.6213ZM10.43 12.6093H9.3524L10.43 10.2218L11.2323 8.44434L13.1123 12.6093H10.43Z" fill="white"/>
</svg>
