<svg width="36" height="37" viewBox="0 0 36 37" fill="none" xmlns="http://www.w3.org/2000/svg">
<g id="&#240;&#159;&#166;&#134; icon &#34;linkedin&#34;">
<path id="Vector" d="M30.6675 30.7953H25.3429V22.4399C25.3429 20.4475 25.3013 17.887 22.5585 17.887C19.782 17.887 19.359 20.0481 19.359 22.2925V30.7941H14.0276V13.6143H19.1486V15.9576H19.2173C19.9328 14.6043 21.6731 13.1811 24.2696 13.1811C29.6708 13.1811 30.6731 16.7373 30.6731 21.361V30.7941L30.6675 30.7953ZM8.00437 11.2664C6.2865 11.2664 4.9095 9.87701 4.9095 8.16589C4.9095 6.46039 6.29212 5.07326 8.00437 5.07326C9.71662 5.07326 11.1037 6.46039 11.1037 8.16589C11.1037 9.87701 9.71662 11.2664 8.00437 11.2664ZM10.6751 30.7953H5.3325V13.6154H10.6751V30.7953ZM33.3405 0.115387H2.655C1.18912 0.115387 0 1.27526 0 2.71076V33.5211C0 34.9566 1.18912 36.1165 2.655 36.1165H33.3349C34.7985 36.1165 36 34.9566 36 33.5211V2.71076C36 1.27526 34.7985 0.115387 33.3349 0.115387L33.3405 0.115387Z" fill="white"/>
</g>
</svg>
