<svg width="36" height="37" viewBox="0 0 36 37" fill="none" xmlns="http://www.w3.org/2000/svg">
<g id="&#240;&#159;&#166;&#134; icon &#34;instagram&#34;">
<path id="Vector" d="M18 0.116516C13.1068 0.116516 12.4969 0.140144 10.5819 0.221154C8.65908 0.315666 7.35842 0.613828 6.21078 1.05938C5.02713 1.52294 4.019 2.13839 3.02325 3.13977C2.02075 4.13552 1.39967 5.14364 0.942868 6.32729C0.497312 7.47494 0.19915 8.7756 0.104638 10.6985C0.0180023 12.6146 0 13.2233 0 18.1165C0 23.0098 0.023628 23.6196 0.104638 25.5346C0.19915 27.4518 0.497312 28.7581 0.942868 29.9057C1.40643 31.0894 2.02188 32.0975 3.02325 33.0933C4.019 34.0958 5.02713 34.7168 6.21078 35.1737C7.35842 35.6136 8.66471 35.9174 10.5819 36.0119C12.4981 36.0985 13.1068 36.1165 18 36.1165C22.8932 36.1165 23.5031 36.0929 25.4181 36.0119C27.3353 35.9174 28.6416 35.6125 29.7892 35.1737C30.9729 34.7101 31.981 34.0946 32.9767 33.0933C33.9792 32.0975 34.6003 31.095 35.0571 29.9057C35.4971 28.7581 35.8009 27.4518 35.8954 25.5346C35.982 23.6185 36 23.0098 36 18.1165C36 13.2233 35.9764 12.6135 35.8954 10.6985C35.8009 8.78122 35.4959 7.46819 35.0571 6.32729C34.5936 5.14364 33.9781 4.13552 32.9767 3.13977C31.981 2.13727 30.9785 1.51619 29.7892 1.05938C28.6416 0.613828 27.3353 0.315666 25.4181 0.221154C23.5019 0.134518 22.8932 0.116516 18 0.116516ZM18 3.35692C22.8055 3.35692 23.3793 3.38055 25.2785 3.46156C27.0304 3.54369 27.9845 3.83623 28.618 4.08376C29.4629 4.41118 30.0536 4.79823 30.6927 5.43056C31.3194 6.05726 31.7065 6.65471 32.0339 7.49969C32.2814 8.13314 32.5739 9.08726 32.6561 10.8391C32.7371 12.7383 32.7607 13.3133 32.7607 18.1176C32.7607 22.922 32.7371 23.4969 32.6493 25.3962C32.5548 27.148 32.2623 28.1021 32.0159 28.7356C31.675 29.5806 31.2947 30.1713 30.6668 30.8104C30.0334 31.4371 29.4303 31.8241 28.5921 32.1515C27.9665 32.3991 26.9989 32.6916 25.2403 32.7737C23.3309 32.8547 22.7683 32.8784 17.9505 32.8784C13.1326 32.8784 12.5712 32.8547 10.6596 32.767C8.90774 32.6725 7.94124 32.3799 7.30779 32.1335C6.45268 31.7926 5.86648 31.4123 5.23866 30.7845C4.6052 30.151 4.2024 29.5479 3.89186 28.7097C3.63983 28.0841 3.35179 27.1165 3.25841 25.3579C3.19427 23.4711 3.1639 22.886 3.1639 18.0906C3.1639 13.2975 3.19427 12.7113 3.25841 10.8009C3.35179 9.04226 3.63983 8.07689 3.89186 7.44906C4.2024 6.59283 4.60633 6.00775 5.23866 5.3743C5.86536 4.74759 6.45268 4.34254 7.30779 4.02525C7.94124 3.77885 8.88411 3.48631 10.6427 3.39855C12.5521 3.32992 13.1146 3.30516 17.9257 3.30516L18 3.35692ZM18 8.87799C12.8907 8.87799 8.75922 13.0151 8.75922 18.1188C8.75922 23.228 12.8964 27.3595 18 27.3595C23.1093 27.3595 27.2408 23.2224 27.2408 18.1188C27.2408 13.0095 23.1036 8.87799 18 8.87799ZM18 24.1191C14.6831 24.1191 11.9996 21.4357 11.9996 18.1188C11.9996 14.8019 14.6831 12.1184 18 12.1184C21.3169 12.1184 24.0004 14.8019 24.0004 18.1188C24.0004 21.4357 21.3169 24.1191 18 24.1191ZM29.7735 8.50894C29.7735 9.70496 28.8002 10.6703 27.6098 10.6703C26.4138 10.6703 25.4484 9.70384 25.4484 8.50894C25.4484 7.31967 26.4206 6.35205 27.6098 6.35205C28.7991 6.35205 29.7735 7.31967 29.7735 8.50894Z" fill="white"/>
</g>
</svg>
