<svg width="36" height="37" viewBox="0 0 36 37" fill="none" xmlns="http://www.w3.org/2000/svg">
<g id="&#240;&#159;&#166;&#134; icon &#34;whatsapp&#34;">
<path id="Vector" d="M26.244 21.6906C25.7929 21.4623 23.5957 20.3901 23.1851 20.2371C22.7745 20.0909 22.4764 20.0144 22.1771 20.4655C21.8846 20.9054 21.0229 21.9123 20.7596 22.2059C20.4964 22.4995 20.2376 22.522 19.7932 22.3229C19.3421 22.0945 17.901 21.6254 16.1899 20.0909C14.8534 18.9018 13.9635 17.437 13.6991 16.9859C13.4359 16.5404 13.6699 16.2884 13.8926 16.0656C14.0974 15.8609 14.3438 15.5504 14.5721 15.2804C14.7893 15.0104 14.859 14.8293 15.0176 14.5368C15.1639 14.2206 15.0885 13.9743 14.9771 13.7515C14.8657 13.5288 13.9691 11.3204 13.5945 10.4406C13.2367 9.56764 12.8621 9.67902 12.5865 9.67902C12.3289 9.65539 12.0296 9.65539 11.7315 9.65539C11.4334 9.65539 10.9462 9.76677 10.5356 10.1943C10.125 10.6454 8.96513 11.7231 8.96513 13.9034C8.96513 16.0893 10.5705 18.2043 10.7933 18.5204C11.0216 18.8129 13.9511 23.3129 18.4455 25.2468C19.5176 25.6979 20.3501 25.9679 21.0004 26.1906C22.0725 26.5304 23.0513 26.4831 23.8241 26.3718C24.6791 26.2311 26.4724 25.2873 26.8481 24.2331C27.2295 23.1723 27.2295 22.2936 27.1181 22.0945C27.0068 21.8898 26.7142 21.7784 26.2631 21.5793L26.244 21.6906ZM18.0934 32.7415H18.0697C15.4091 32.7415 12.7789 32.0204 10.4816 30.6726L9.94275 30.3509L4.31775 31.8156L5.82975 26.3425L5.46638 25.78C3.98363 23.4186 3.19275 20.6939 3.19275 17.8938C3.19275 9.72627 9.87863 3.06402 18.1046 3.06402C22.0894 3.06402 25.8278 4.61652 28.6403 7.42902C31.4528 10.2179 33.0052 13.9563 33.0052 17.9174C32.994 26.0793 26.3137 32.7415 18.099 32.7415H18.0934ZM30.7789 5.29039C27.3566 1.98514 22.8566 0.116516 18.0697 0.116516C8.19675 0.116516 0.1575 8.12089 0.151875 17.9579C0.151875 21.0989 0.972 24.1634 2.5425 26.8758L0 36.1165L9.504 33.6381C12.123 35.05 15.0705 35.806 18.0709 35.8116H18.0765C27.9551 35.8116 35.9944 27.8073 36 17.9635C36 13.2003 34.1426 8.71714 30.7564 5.34777L30.7789 5.29039Z" fill="white"/>
</g>
</svg>
